CATALOG "0000000000000"
FILE "EDF_Special.bin" BINARY
  TRACK 01 MODE1/2352
    INDEX 01 00:00:00
  TRACK 02 AUDIO
    INDEX 01 00:09:69
  TRACK 03 AUDIO
    INDEX 01 01:40:41
  TRACK 04 AUDIO
    INDEX 01 03:47:38
  TRACK 05 AUDIO
    INDEX 01 05:34:70
